<svg xmlns="http://www.w3.org/2000/svg" viewBox="0 0 106 22"><g clip-path="url(#a)"><g clip-path="url(#b)" filter="url(#c)"><path fill="url(#d)" d="M16.98.09H5.02A5 5 0 0 0 0 5.07v11.86a5 5 0 0 0 5.02 4.98h11.96A5 5 0 0 0 22 16.93V5.07A5 5 0 0 0 16.98.09Z"/><path fill="#fff" fill-rule="evenodd" d="M7.33 15.68V6.33H4.62v9.35h2.71Zm.32-9.67H4.3v10h3.35V6Z" clip-rule="evenodd"/><path fill="#2E03A0" d="M5.97 17.67a1.67 1.67 0 1 1 0-3.33c.93 0 1.68.74 1.68 1.66 0 .92-.75 1.67-1.68 1.67Z"/><path fill="#fff" fill-rule="evenodd" d="M4.62 16a1.35 1.35 0 0 0 2.71 0c0-.74-.6-1.34-1.36-1.34-.74 0-1.35.6-1.35 1.34Zm-.32 0a1.67 1.67 0 0 0 3.36 0c0-.92-.76-1.66-1.69-1.66-.92 0-1.67.74-1.67 1.66Z" clip-rule="evenodd"/><path fill="#fff" d="m7.41 5.17 5.04 8.65-2.91 1.66-5.03-8.65 2.9-1.66Z"/><path fill-rule="evenodd" d="M12 13.7 7.3 5.6 4.94 6.95l4.7 8.1L12 13.7ZM7.42 5.17l-2.9 1.66 5.03 8.65 2.9-1.66-5.03-8.65Z" clip-rule="evenodd"/><path fill="#fff" d="M5.97 7.68a1.67 1.67 0 1 1 0-3.33c.93 0 1.68.74 1.68 1.66 0 .92-.75 1.67-1.68 1.67Z"/><path fill-rule="evenodd" d="M4.61 6.01c0 .75.61 1.36 1.36 1.36a1.36 1.36 0 1 0 0-2.7c-.75 0-1.36.6-1.36 1.34Zm-.31 0a1.67 1.67 0 0 0 3.36 0c0-.92-.76-1.66-1.69-1.66-.92 0-1.67.74-1.67 1.66Z" clip-rule="evenodd"/><path fill="#13C1FF" d="M14.35 6.01v10h3.35V6h-3.35Z"/><path fill-rule="evenodd" d="M14.67 15.68V6.33h2.71v9.35h-2.71Zm-.32-9.67h3.35v10h-3.35V6Z" clip-rule="evenodd"/><path fill="#06CF13" d="M16.02 17.67c.93 0 1.68-.75 1.68-1.67 0-.92-.75-1.66-1.68-1.66-.92 0-1.67.74-1.67 1.66 0 .92.75 1.67 1.67 1.67Z"/><path fill-rule="evenodd" d="M17.38 16c0 .74-.6 1.35-1.36 1.35a1.35 1.35 0 1 1 0-2.7c.75 0 1.36.6 1.36 1.35Zm.32 0c0 .92-.75 1.67-1.68 1.67a1.67 1.67 0 1 1 0-3.33c.93 0 1.68.74 1.68 1.66Z" clip-rule="evenodd"/><path fill="#FA52D6" d="m14.59 5.17-5.04 8.65 2.9 1.66 5.04-8.65-2.9-1.66Z"/><path fill-rule="evenodd" d="m10 13.7 4.7-8.1 2.35 1.35-4.7 8.1-2.36-1.35Zm4.59-8.53 2.9 1.66-5.03 8.65-2.9-1.66 5.03-8.65Z" clip-rule="evenodd"/><path fill="red" d="M10.17 16.1c.8.45 1.83.18 2.29-.62.46-.8.19-1.81-.62-2.27a1.68 1.68 0 0 0-2.29.6c-.46.8-.19 1.82.62 2.28Z"/><path fill-rule="evenodd" d="M12.18 15.32c-.37.65-1.2.87-1.85.5a1.34 1.34 0 0 1-.5-1.84c.38-.65 1.2-.87 1.85-.5.65.38.87 1.2.5 1.84Zm.28.16a1.68 1.68 0 0 1-2.3.61 1.66 1.66 0 0 1-.6-2.27 1.68 1.68 0 0 1 2.28-.61c.8.46 1.08 1.48.62 2.27Z" clip-rule="evenodd"/><path fill="#FFC400" d="M16.02 7.68c.93 0 1.68-.75 1.68-1.67 0-.92-.75-1.66-1.68-1.66-.92 0-1.67.74-1.67 1.66 0 .92.75 1.67 1.67 1.67Z"/><path fill-rule="evenodd" d="M17.39 6.01c0 .75-.61 1.36-1.37 1.36a1.36 1.36 0 1 1 0-2.7c.76 0 1.37.6 1.37 1.34Zm.31 0c0 .92-.75 1.67-1.68 1.67a1.67 1.67 0 1 1 0-3.33c.93 0 1.68.74 1.68 1.66Z" clip-rule="evenodd"/></g></g><path fill="#fff" d="M29.12 5.58h2.2l3.88 8.96h.06l3.88-8.96h2.19V17h-1.87V9.13h-.07L36.03 17h-1.61l-3.36-7.87h-.07V17h-1.87V5.58Zm20.22-.23c1.74 0 3.12.56 4.12 1.7a6.15 6.15 0 0 1 1.44 4.25 6.1 6.1 0 0 1-1.44 4.24 5.27 5.27 0 0 1-4.12 1.68 5.24 5.24 0 0 1-4.13-1.7 6.14 6.14 0 0 1-1.43-4.22c0-1.74.47-3.15 1.43-4.24a5.15 5.15 0 0 1 4.13-1.7Zm0 1.65c-1.19 0-2.1.4-2.76 1.2-.62.77-.92 1.8-.92 3.1s.3 2.32.92 3.1a3.37 3.37 0 0 0 2.76 1.18 3.4 3.4 0 0 0 2.73-1.14c.63-.75.95-1.8.95-3.14s-.32-2.4-.95-3.16C51.43 7.37 50.52 7 49.34 7Zm12.98-1.65c1.34 0 2.46.35 3.33 1.06.83.67 1.33 1.6 1.5 2.75h-1.82c-.2-.75-.55-1.3-1.07-1.65A3.4 3.4 0 0 0 62.29 7c-1.2 0-2.1.4-2.7 1.23a4.97 4.97 0 0 0-.84 3.07c0 1.35.27 2.39.82 3.1.59.78 1.52 1.18 2.77 1.18.81 0 1.48-.21 2-.6.54-.43.92-1.08 1.15-1.95h1.82a5.04 5.04 0 0 1-1.79 3.14 4.91 4.91 0 0 1-3.17 1.05c-1.9 0-3.33-.6-4.25-1.79a6.44 6.44 0 0 1-1.22-4.13c0-1.7.42-3.08 1.26-4.14.96-1.22 2.36-1.8 4.18-1.8Zm14.63.23h2.37l-5.02 4.9L80.07 17h-2.52l-4.52-5.3-1.39 1.36V17h-1.87V5.58h1.87v5.39l5.31-5.4Zm4.93 0h1.87V17h-1.87V5.58Zm3.92 0h9.36v1.6h-3.74V17h-1.87V7.18H85.8v-1.6Zm10.54 0h9.36v1.6h-3.75V17h-1.87V7.18h-3.74v-1.6Z"/><defs><clipPath id="a"><rect width="22" height="22" fill="#fff" rx="2.76"/></clipPath><clipPath id="b"><path fill="#fff" d="M0 0h22v22H0z"/></clipPath><linearGradient id="d" x1="-13.44" x2="-14.3" y1="-17.81" y2="25.48" gradientUnits="userSpaceOnUse"><stop stop-color="#8003C0"/><stop offset="1" stop-color="#170297"/></linearGradient><filter id="c" width="22" height="21.83" x="0" y=".09" color-interpolation-filters="sRGB" filterUnits="userSpaceOnUse"><feFlood flood-opacity="0" result="BackgroundImageFix"/><feBlend in="SourceGraphic" in2="BackgroundImageFix" result="shape"/><feColorMatrix in="SourceAlpha" result="hardAlpha" values="0 0 0 0 0 0 0 0 0 0 0 0 0 0 0 0 0 0 127 0"/><feOffset/><feGaussianBlur stdDeviation=".35"/><feComposite in2="hardAlpha" k2="-1" k3="1" operator="arithmetic"/><feColorMatrix values="0 0 0 0 0 0 0 0 0 0 0 0 0 0 0 0 0 0 0.24 0"/><feBlend in2="shape" mode="darken" result="effect1_innerShadow_10476_48687"/></filter></defs></svg>
