<svg xmlns="http://www.w3.org/2000/svg" viewBox="0 0 62 32"><path fill="#F33" d="M18.67 27H5.47a4.4 4.4 0 0 1-4.4-4.4V9.4A4.4 4.4 0 0 1 5.47 5h13.2a4.4 4.4 0 0 1 4.4 4.4v13.2a4.4 4.4 0 0 1-4.4 4.4Z"/><path fill="#fff" d="M4.57 15.62v-6c0-.06.05-.12.13-.12h3.12c.08 0 .13.06.13.13v5.99c0 .07-.05.13-.13.13H4.7a.12.12 0 0 1-.13-.13Zm5.53 0v-6c0-.06.05-.12.13-.12h3.12c.08 0 .13.06.13.13v5.99c0 .07-.05.13-.13.13h-3.12a.12.12 0 0 1-.13-.13Zm9.47-6a.12.12 0 0 0-.13-.12h-3.12a.12.12 0 0 0-.13.13v4.72a6.64 6.64 0 0 1-3.76 6c-.07.04-.1.12-.07.18l1.28 2.9c.03.06.11.09.18.06a10.06 10.06 0 0 0 5.75-9.13V9.63Z"/><path fill="#333" d="M47.34 8.6v1.9c0 .08.06.14.14.14h3.43l-.3 5a7.13 7.13 0 0 1-1.17 3.84 6 6 0 0 1-2.62 2.07.14.14 0 0 0-.07.2l.79 1.71c.03.07.11.1.18.07 3.05-1.3 4.84-3.95 5.05-7.5l.32-5.39h5.64v12.59c0 .08.06.14.14.14h1.92c.08 0 .14-.06.14-.14V8.59a.14.14 0 0 0-.14-.14H47.48a.14.14 0 0 0-.14.14Zm-4.02 7.83h-5.94v-.65h5.75c.08 0 .14-.06.14-.14V14.5a.14.14 0 0 0-.14-.14h-5.75v-.65h5.75c.08 0 .14-.07.14-.14V8.59a.14.14 0 0 0-.14-.13H29.8a.14.14 0 0 0-.14.13v4.96c0 .08.06.14.14.14h5.75v.65H29.8a.14.14 0 0 0-.14.14v1.15c0 .08.06.14.14.14h5.75v.65H29.6a.14.14 0 0 0-.14.14v1.16c0 .08.06.14.14.14h13.73c.08 0 .14-.06.14-.14v-1.16c0-.06-.07-.13-.15-.13Zm-1.88-4.19h-4.06V9.9h4.06v2.35Zm-9.95 0V9.9h4.05v2.35H31.5Zm11.76 9.17h-5.88v.53h6.34c.07 0 .13.06.13.13v1.16c0 .08-.06.14-.13.14H29.2a.14.14 0 0 1-.14-.14v-1.16c0-.07.06-.13.14-.13h6.33v-.53h-5.88a.14.14 0 0 1-.14-.14v-1.15c0-.08.06-.14.14-.14h5.88v-1.56c0-.08.07-.14.14-.14h1.55c.08 0 .14.06.14.14v1.56h5.88c.08 0 .14.06.14.14v1.15c0 .08-.06.14-.14.14Zm-9.2-11h-1.43a.07.07 0 0 0-.07.09l.23 1.16c.01.04.04.06.07.06h1.43c.04 0 .07-.04.07-.08l-.24-1.17c0-.03-.03-.06-.07-.06Zm6.32.1-.24 1.16c0 .03-.03.05-.07.05h-1.42a.07.07 0 0 1-.07-.09l.23-1.15c.01-.04.04-.06.07-.06h1.43c.04 0 .08.04.07.08Zm1.26 9.07h1.42c.05 0 .08-.04.07-.09l-.23-1.16c-.01-.04-.04-.06-.07-.06h-1.43a.07.07 0 0 0-.07.08l.24 1.17c0 .03.03.06.07.06Zm-1.33 0h-1.43c-.03 0-.06-.03-.07-.06l-.23-1.17c-.01-.04.03-.08.07-.08h1.42c.04 0 .06.02.07.06l.24 1.16c0 .05-.03.09-.07.09Zm-8.94-.06.23-1.17a.07.07 0 0 0-.07-.08H30.1c-.04 0-.06.02-.07.06l-.24 1.16c0 .05.03.09.07.09h1.43c.03 0 .06-.03.07-.06Zm2.99-1.17-.24 1.17c0 .03-.03.06-.07.06h-1.42a.07.07 0 0 1-.07-.09l.23-1.16c.01-.04.04-.06.07-.06h1.43c.04 0 .07.04.07.08Z"/></svg>
